<svg enable-background="new 1.502 2 72.997 73" height="73" viewBox="1.502 2 72.997 73" width="72.997" xmlns="http://www.w3.org/2000/svg"><path d="m71.209 5.318-3.932-4.118h-28.456-1.643-28.443l-3.529 3.52-.014-.014-.568.594-.581.58.014.014-3.357 3.517v28.361 1.64 28.178l3.356 3.515-.014.014.571.569.577.604.015-.014 3.53 3.522h28.444 1.643 28.456l3.941-4.127 4.082-4.072v-28.189-1.64-28.373zm-4.636-2.478 2.89 3.027-30.642 30.738v-33.765zm-57.158 0h27.764v33.773l-30.811-30.733zm-7.072 7.228 2.877-3.015 30.795 30.718h-33.672zm0 56.866v-27.522h33.664l-8.822 8.751-21.964 21.786zm34.836 7.226h-27.764l-3.045-3.037 30.809-30.559v.016zm29.394 0h-27.752v-33.589l30.64 30.563zm7.084-7.238-3.047 3.039-30.625-30.549h33.673v27.51zm-33.664-29.15h-.015l15.721-15.772 14.913-14.96 3.046 3.039v27.692h-33.665z" fill="#d4d4d4"/></svg>